<?xml version="1.0" standalone="no"?> <!DOCTYPE svg PUBLIC "-//W3C//DTD SVG 1.0//EN" "http://www.w3.org/TR/2001/REC-SVG-20010904/DTD/svg10.dtd" > <svg xmlns="http://www.w3.org/2000/svg" width="100%" height="100%">
<defs >
<font horiz-adv-x="594" ><font-face
    font-family="Amazing Grotesk"
    units-per-em="1000"
    panose-1="0 0 0 0 0 0 0 0 0 0"
    ascent="950"
    descent="-293"
    alphabetic="0" />
<missing-glyph horiz-adv-x="266" />
<glyph unicode=" " glyph-name="space" horiz-adv-x="276" />
<glyph unicode="!" glyph-name="exclam" horiz-adv-x="301" d="M108 188V772H175V241H206V188H108ZM203 42Q203 17 187 4T148 -9Q125 -9 109 4T93 42Q93 67 109 80T148 93Q171 93 187 80T203 42Z" />
<glyph unicode="&quot;" glyph-name="quotedbl" horiz-adv-x="243" d="M40 735H102V560H60L40 735ZM142 735H201L181 560H142V735Z" />
<glyph unicode="#" glyph-name="numbersign" horiz-adv-x="765" d="M357 0Q374 55 390 110T424 220H244Q227 165 210 110T176 0H118Q135 55 151 110T185 220H47V267H199L256 457H115V504H271Q286 555 302 606T334 710H395L332 504H510Q525 555 541 606T572 710H634L571
504H721V457H556L497 267H653V220H483L415 0H357ZM258 267H438L495 457H317L258 267Z" />
<glyph unicode="$" glyph-name="dollar" horiz-adv-x="628" d="M536 556Q523 556 510 556T484 557L481 641Q446 652 408 657T344 663Q308 663 273 658T209 640T162 605T144 549Q144 517 157 493T194 452T255 423T337 400Q358 395 384 390T438 376T490 353T536
316T568 261T580 184Q580 138 559 102T501 41T415 3T308 -11Q260 -11 198 -5T67 22L75 163H131V73Q162 65 205 59T283 53Q317 53 356 60T429 82T484 122T506 183Q506 224 488 251T442 295T378 322T308 340Q187 363 131 414T74 549Q74 595 93 628T146 682T230 712T338
722Q379 722 429 716T551 688L536 556ZM347 781V-72H281V781H347Z" />
<glyph unicode="%" glyph-name="percent" horiz-adv-x="683" d="M596 710Q484 531 374 355T152 0H84Q195 178 304 354T524 710H596ZM297 524Q297 481 287 456T259 418T219 401T172 397Q146 397 123 401T83 418T55 457T44 524V591Q44 634 54 659T83 698T124 714T172
718Q197 718 219 714T259 697T286 658T297 589V524ZM247 592Q247 643 227 658T170 673Q134 673 114 658T94 593V523Q94 474 114 459T170 444Q206 444 226 459T247 524V592ZM633 123Q633 80 623 55T595 17T556 1T508 -3Q482 -3 459 1T419 18T391 56T381 123V190Q381
233 391 258T419 296T460 312T508 316Q533 316 555 312T595 295T622 257T633 188V123ZM584 191Q584 242 564 257T507 272Q471 272 451 257T431 192V122Q431 73 451 58T507 43Q543 43 563 57T584 123V191Z" />
<glyph unicode="&amp;" glyph-name="ampersand" horiz-adv-x="828" d="M483 310H625Q671 310 703 305T755 293T786 278T802 265L790 229L752 238Q735 242 713 244T664 248Q656 248 649 248T633 249Q633 190 635 149T640 78T649 31T661 -1L616 -21Q608 -16 598
-4T581 34Q538 18 479 4T344 -11Q296 -11 244 0T149 37T77 102T48 201Q48 282 81 324T175 383Q133 398 106 432T79 531Q79 593 103 629T165 685T244 709T322 715Q347 715 371 713T421 705T477 691T544 672L535 525Q521 527 509 528T482 530Q483 555 483 578T483
624Q466 633 445 638T404 647T364 652T331 654Q294 654 260 651T201 635T160 599T145 532Q145 494 158 470T192 432T240 411T292 402T342 400T382 400L367 346H306Q269 346 235 341T174 319T132 275T116 200Q116 158 139 129T197 81T271 54T344 45Q410 45 462 58T553
83L572 90Q570 106 569 125T567 168V249H465L483 310Z" />
<glyph unicode="&apos;" glyph-name="quotesingle" horiz-adv-x="158" d="M96 560H57L42 735H111L96 560Z" />
<glyph unicode="(" glyph-name="parenleft" horiz-adv-x="263" d="M132 358Q132 261 141 177T167 27T209 -87T264 -159L230 -189Q192 -162 161 -117T108 -6T74 151T62 357Q62 474 73 562T104 714T155 821T225 891Q230 887 241 877T258 862Q232 838 209 795T169
688T142 542T132 358Z" />
<glyph unicode=")" glyph-name="parenright" horiz-adv-x="245" d="M129 355Q129 450 119 532T92 679T51 791T3 862L36 891Q75 864 105 821T156 714T188 562T199 357Q199 241 187 151T153 -5T100 -116T30 -188L-3 -158Q27 -134 51 -88T93 24T120 173T129 355Z" />
<glyph unicode="*" glyph-name="asterisk" horiz-adv-x="459" d="M51 351Q58 362 64 373T77 396L194 328V463H248V328L366 397Q373 386 379 375T392 352L273 283L392 214L365 169Q336 186 307 203T248 237V102H194V237Q165 220 136 203T78 169Q71 180 65 191T51
214L170 283Q140 300 111 317T51 351Z" />
<glyph unicode="+" glyph-name="plus" horiz-adv-x="453" d="M57 316H191V448L248 456V316H385V262H248V127L191 120V262H57V316Z" />
<glyph unicode="," glyph-name="comma" horiz-adv-x="194" d="M36 42Q36 67 52 80T91 93Q108 93 121 87T139 63Q144 58 145 44T147 22Q147 -23 128 -61T58 -125L41 -100Q72 -74 80 -54T89 -9Q66 -8 51 4T36 42Z" />
<glyph unicode="-" glyph-name="hyphen" horiz-adv-x="419" d="M56 316H353V258H56V316Z" />
<glyph unicode="." glyph-name="period" horiz-adv-x="194" d="M26 42Q26 67 42 80T81 93Q104 93 120 80T136 42Q136 17 120 4T81 -9Q58 -9 42 4T26 42Z" />
<glyph unicode="/" glyph-name="slash" horiz-adv-x="383" d="M378 771L103 -129H36L307 771H378Z" />
<glyph unicode="0" glyph-name="zero" horiz-adv-x="660" d="M589 301Q588 202 567 141T510 47T426 1T322 -11H316Q259 -11 211 1T128 47T74 142T54 301V402Q54 506 75 569T134 665T221 709T328 720Q383 720 431 708T514 661T569 564T589 403V301ZM520 410Q520
493 503 543T459 620T396 655T325 664H321Q282 664 246 656T183 621T140 545T123 413V297Q123 213 140 164T185 88T248 54T319 46H322Q355 46 390 53T454 85T501 160T520 292V410Z" />
<glyph unicode="1" glyph-name="one" horiz-adv-x="357" d="M45 652V710H210V57H293V0H59V57H142V652H45Z" />
<glyph unicode="2" glyph-name="two" horiz-adv-x="633" d="M48 59L368 359Q401 390 425 413T464 456T487 495T495 539Q495 577 481 600T441 635T384 652T315 656Q299 656 278 654T233 647T185 635T139 616Q139 593 139 569T141 520L88 511Q85 548 82 584T75 657Q148
686 207 702T311 719Q346 719 390 715T472 693T537 640T564 542V535Q564 499 551 471T513 415T454 358T379 290L129 59H540Q542 84 542 108T543 161H593V0H48V59Z" />
<glyph unicode="3" glyph-name="three" horiz-adv-x="605" d="M469 531Q469 573 454 597T415 634T357 650T288 654H284Q252 654 209 647T130 625Q130 601 130 578T131 531L77 525Q75 562 73 599T69 672Q105 683 134 691T188 704T234 711T278 714Q311 714 356 710T441
689T510 636T538 539V535Q538 469 512 435T441 383Q501 366 534 325T567 204V196Q567 140 541 101T475 37T385 1T287 -11Q206 -11 147 5T45 38L68 91Q108 76 160 61T287 45Q319 45 356 53T424 81T477 129T498 200Q498 243 483 271T442 317T381 341T306 348H247L235
401H300Q334 401 364 406T418 425T455 465T469 531Z" />
<glyph unicode="4" glyph-name="four" horiz-adv-x="653" d="M524 -20L457 -10V108H59V166L404 710H483L138 166H457V248Q457 304 450 338T436 386L476 399Q487 391 495 376T508 335T518 267T524 166H634V108H524V-20Z" />
<glyph unicode="5" glyph-name="five" horiz-adv-x="603" d="M61 710H538V560H485Q485 587 485 607T484 652H124V416Q137 421 151 425T183 433T224 438T277 440Q341 440 393 427T483 386T540 314T561 208V200Q561 141 535 101T469 36T381 0T286 -11Q199 -11 137
5T31 43Q36 57 42 69T55 96Q96 79 151 63T287 46Q319 46 355 55T422 83T473 132T493 204Q493 292 438 338T285 385Q225 385 180 377T107 357H61V710Z" />
<glyph unicode="6" glyph-name="six" horiz-adv-x="643" d="M117 261Q117 184 133 141T176 76T241 49T320 44Q354 44 390 48T455 69T504 122T523 219Q523 276 504 310T456 361T393 384T326 389Q297 389 267 385T208 376T156 364T117 353V261ZM319 659Q288 659
254 653T190 627T140 574T119 486Q118 464 118 443T117 399Q133 406 155 414T205 429T264 440T329 445Q377 445 424 438T509 406T569 338T592 219Q592 148 571 103T513 32T426 -3T318 -13Q255 -13 206 -4T121 35T68 121T49 271V463Q49 539 72 588T132 666T219 706T321
717Q353 717 380 715T433 708T486 695T545 675Q545 645 545 616T544 555Q533 557 518 557T491 557V628Q457 641 409 650T319 659Z" />
<glyph unicode="7" glyph-name="seven" horiz-adv-x="606" d="M176 0L502 652H87Q85 627 85 603T84 550H33V710H575V652Q492 488 411 326T247 0H176Z" />
<glyph unicode="8" glyph-name="eight" horiz-adv-x="649" d="M321 713Q357 713 400 709T481 688T544 638T570 548V543Q570 511 563 488T542 447T510 418T470 397Q506 384 530 364T570 318T591 261T598 195Q598 138 578 98T521 33T433 -3T321 -14Q263 -14 213
-3T125 33T67 98T45 195V201Q45 248 53 281T77 337T118 374T174 397Q152 406 134 417T102 447T82 489T74 549Q74 605 99 638T162 687T243 708T321 713ZM530 200Q530 286 475 324T320 362Q217 362 166 324T114 200Q114 154 131 124T176 77T242 52T319 45Q362 45
400 52T467 76T513 124T530 200ZM141 541Q141 502 155 478T194 441T250 423T319 418H323Q358 418 390 422T448 440T488 478T503 542Q503 582 486 605T441 639T382 653T321 656Q291 656 260 654T202 640T158 605T141 541Z" />
<glyph unicode="9" glyph-name="nine" horiz-adv-x="660" d="M523 443Q523 517 508 560T465 625T400 653T321 659Q285 659 249 654T184 631T137 580T119 491Q119 434 135 399T178 344T236 318T300 311H349Q388 311 419 318T475 333L523 350V443ZM523 302L506 295Q493
290 478 283T444 270T401 259T345 254H298Q250 254 206 263T127 298T73 370T52 491Q52 557 74 600T133 669T220 705T322 716Q386 716 436 707T520 668T573 582T591 431V237Q591 160 568 111T506 34T418 -5T317 -16Q267 -16 210 -7T80 35Q85 48 92 61T105 87Q130
74 159 66T216 52T271 44T317 42Q342 42 377 49T445 76T500 127T523 209V302Z" />
<glyph unicode=":" glyph-name="colon" horiz-adv-x="194" d="M26 42Q26 67 42 80T81 93Q104 93 120 80T136 42Q136 17 120 4T81 -9Q58 -9 42 4T26 42ZM26 449Q26 473 42 486T81 500Q104 500 120 487T136 449Q136 424 120 411T81 397Q58 397 42 410T26 449Z" />
<glyph unicode=";" glyph-name="semicolon" horiz-adv-x="194" d="M36 42Q36 67 52 80T91 93Q108 93 121 87T139 63Q144 58 145 44T147 22Q147 -23 128 -61T58 -125L41 -100Q72 -74 80 -54T89 -9Q66 -8 51 4T36 42ZM37 449Q37 473 53 486T92 500Q115 500 131 487T147
449Q147 424 131 411T92 397Q69 397 53 410T37 449Z" />
<glyph unicode="&lt;" glyph-name="less" horiz-adv-x="492" d="M61 323L423 452V388Q351 363 281 339T138 291L424 183V118L61 261V323Z" />
<glyph unicode="=" glyph-name="equal" horiz-adv-x="520" d="M69 263H440V209H69V263ZM69 369H440V315H69V369Z" />
<glyph unicode="&gt;" glyph-name="greater" horiz-adv-x="486" d="M424 261L61 118V183L347 291L61 388V452L424 323V261Z" />
<glyph unicode="?" glyph-name="question" horiz-adv-x="649" d="M78 669L136 691Q185 709 224 716T302 725Q336 725 379 720T460 698T525 645T551 550Q551 511 535 480T495 423T442 375T390 334T349 297T333 260V185H266V268Q266 297 282 320T322 363T374 402T427
442T467 488T483 548Q483 585 469 608T432 643T377 660T309 664Q276 664 231 656T142 626Q142 602 142 578T144 528Q130 526 117 525T90 521L78 669ZM247 42Q247 66 263 79T302 93Q325 93 341 80T357 42Q357 17 341 5T302 -8Q279 -8 263 4T247 42Z" />
<glyph unicode="@" glyph-name="at" horiz-adv-x="819" d="M627 120Q672 120 700 159T728 280Q728 347 705 407T641 514T542 587T417 615Q349 615 291 588T191 514T125 408T101 282Q101 216 125 156T191 51T291 -20T417 -47Q449 -47 480 -37T538 -15Q551 -25 564
-33T591 -51Q552 -72 507 -85T417 -99Q340 -99 272 -69T154 13T74 134T45 283Q45 361 74 431T153 553T272 637T417 668Q494 668 560 639T676 558T754 436T783 283Q783 212 767 170T726 106T675 76T625 69Q600 69 583 74T555 87T538 104T528 121Q523 121 520 123T516
126Q498 105 472 90T398 75Q322 75 292 108T261 197V213Q261 267 299 297T426 327H506Q506 380 492 405T429 431Q405 431 376 428T330 423V397L292 395L287 463Q302 466 320 469T358 475T397 479T433 481Q480 481 506 467T544 429T559 378T562 322V180Q562 153
582 137T627 120ZM508 277H428Q368 277 342 259T315 209V194Q315 156 337 141T403 125Q421 125 439 127T471 139T496 167T508 215V277Z" />
<glyph unicode="A" glyph-name="A" horiz-adv-x="734" d="M17 0V57H99L298 652H252V710H415L633 57H715V0H579L510 205H221Q204 153 187 102T153 0H17ZM239 264H493L366 652L239 264Z" />
<glyph unicode="B" glyph-name="B" horiz-adv-x="685" d="M54 652V710H342Q378 710 421 706T501 685T564 634T589 538V526Q589 465 563 431T491 381Q561 363 598 323T635 202V188Q635 133 616 97T566 40T495 9T413 0H61V57H137V652H54ZM567 199Q567 244 552 272T511
317T449 340T375 347H205V57H407Q440 57 469 64T519 87T554 131T567 199ZM521 531Q521 573 506 597T466 634T407 649T337 652H205V401H338Q374 401 407 405T465 422T506 462T521 531Z" />
<glyph unicode="C" glyph-name="C" horiz-adv-x="633" d="M560 537H507L506 633Q468 647 424 655T347 663Q305 663 266 655T196 620T147 542T128 405V303Q128 225 143 176T187 97T253 57T339 46Q378 46 411 51T472 64T524 81T568 97L589 45Q568 37 543 27T487
9T419 -5T339 -11Q282 -11 231 1T140 46T79 140T56 298V405Q56 496 75 557T132 654T223 706T345 721Q385 721 441 713T569 681L560 537Z" />
<glyph unicode="D" glyph-name="D" horiz-adv-x="704" d="M55 652V710H353Q420 710 474 700T568 658T628 565T649 401V295Q649 199 625 141T559 51T465 10T354 0H62V57H137V652H55ZM581 412Q581 500 560 548T506 620T434 647T360 652H204V57H354Q397 57 438 66T510
101T561 176T581 304V412Z" />
<glyph unicode="E" glyph-name="E" horiz-adv-x="630" d="M55 652V710H566V568H508V652H205V391H462V333H205V57H524V141H582V0H63V57H137V652H55Z" />
<glyph unicode="F" glyph-name="F" horiz-adv-x="574" d="M55 652V710H556V567H498V652H207V378H455V320H207V57H293V0H55V57H138V652H55Z" />
<glyph unicode="G" glyph-name="G" horiz-adv-x="632" d="M504 536Q504 561 504 584T503 633Q465 647 422 656T345 665Q303 665 263 657T193 621T144 542T125 405V303Q125 225 140 175T184 97T251 57T337 46Q395 46 440 58T519 81Q516 96 515 114T514 156V243H422V297H580V138Q580
85 586 50T602 0L562 -12Q556 -9 549 -1T535 27Q500 15 452 2T337 -11Q278 -11 227 1T137 46T77 140T54 297V402Q54 495 73 556T129 654T220 706T343 721Q382 721 434 714T558 684Q558 647 558 610T556 536H504Z" />
<glyph unicode="H" glyph-name="H" horiz-adv-x="784" d="M494 652V710H729V652H646V57H729V0H494V57H577V335H206V57H289V0H54V57H137V652H54V710H289V652H206V392H577V652H494Z" />
<glyph unicode="I" glyph-name="I" horiz-adv-x="291" d="M29 652V710H264V652H181V57H264V0H29V57H113V652H29Z" />
<glyph unicode="J" glyph-name="J" horiz-adv-x="431" d="M40 73Q63 59 89 52T140 45Q171 45 197 52T242 80T271 139T282 242V653H190V710H351V238Q351 161 334 113T288 37T218 -1T129 -11Q98 -11 69 -2T14 21L40 73Z" />
<glyph unicode="K" glyph-name="K" horiz-adv-x="749" d="M698 710V652H622Q615 645 608 638T589 617T559 582T513 528T445 446T349 330L576 108Q599 85 620 69T658 45L690 29L672 -10H664Q657 -10 644 -8T613 2T570 28T515 75L209 377V146Q209 108 206 80T198
32T187 -1T175 -21L121 -15L130 27Q134 45 136 69T139 122V652H46V710H207V472L301 375L580 710H698Z" />
<glyph unicode="L" glyph-name="L" horiz-adv-x="602" d="M573 0H62V57H137V652H54V710H278V652H204V59H514Q516 80 517 102T518 151H573V0Z" />
<glyph unicode="M" glyph-name="M" horiz-adv-x="941" d="M55 0V57H130Q134 209 138 354T147 652H64V710H238L469 200Q530 328 590 455T711 710H883V652H800Q805 501 808 355T816 57H891V0H674V57H749L734 608Q674 483 614 359T494 110H445L213 610Q208 469 205
334T197 57H272V0H55Z" />
<glyph unicode="N" glyph-name="N" horiz-adv-x="822" d="M54 652V710H214L629 99V652H546V710H781V652H698V57H781V0H620Q515 153 413 305T205 610V57H280V0H54V57H137V652H54Z" />
<glyph unicode="O" glyph-name="O" horiz-adv-x="662" d="M331 720Q384 720 434 708T522 663T584 568T608 407V305Q608 206 586 145T525 49T437 2T331 -11Q275 -11 225 1T137 48T77 145T54 305V407Q54 506 77 567T139 662T228 708T331 720ZM331 663Q288 663 250
653T184 614T140 533T124 397V300Q124 220 140 171T185 93T251 56T331 46Q373 46 410 55T475 93T520 170T537 300V397Q537 481 521 533T477 614T412 653T331 663Z" />
<glyph unicode="P" glyph-name="P" horiz-adv-x="643" d="M54 652V710H325Q396 710 448 700T534 666T584 603T601 503V491Q601 431 583 391T531 327T445 293T327 282H205V57H280V0H61V57H137V652H54ZM535 496Q535 550 520 581T477 628T411 648T328 652H205V338H327Q372
338 410 344T475 367T519 415T535 496Z" />
<glyph unicode="Q" glyph-name="Q" horiz-adv-x="660" d="M331 720Q384 720 434 708T522 663T584 568T608 407V305Q608 214 589 155T537 61T460 10T366 -9V-141L295 -134V-8Q245 -5 201 10T125 60T73 155T54 305V407Q54 506 77 567T139 662T228 708T331 720ZM331
663Q288 663 250 653T184 614T140 533T124 397V300Q124 220 140 171T185 93T251 56T331 46Q373 46 410 55T475 93T520 170T537 300V397Q537 481 521 533T477 614T412 653T331 663Z" />
<glyph unicode="R" glyph-name="R" horiz-adv-x="678" d="M60 57H135V652H52V710H315Q382 710 437 702T531 670T591 604T613 495V480Q613 391 568 347T441 289L578 111Q619 58 649 37L681 16Q674 8 666 -3T651 -20Q645 -19 633 -16T602 -1T562 32T512 88L364 282Q354
280 344 280T324 280H201V57H276V0H60V57ZM545 487Q545 543 527 575T478 625T405 647T317 652H201V335H317Q362 335 402 339T473 358T523 404T545 487Z" />
<glyph unicode="S" glyph-name="S" horiz-adv-x="628" d="M536 556Q523 556 510 556T484 557L481 641Q446 652 408 657T344 663Q308 663 273 658T209 640T162 605T144 549Q144 517 157 493T194 452T255 423T337 400Q358 395 384 390T438 376T490 353T536 316T568
261T580 184Q580 138 559 102T501 41T415 3T308 -11Q260 -11 198 -5T67 22L75 163H131V73Q162 65 205 59T283 53Q317 53 357 60T431 83T488 124T511 185Q511 226 492 252T444 296T378 322T308 340Q187 363 131 414T74 549Q74 595 93 628T146 682T230 712T338 722Q379
722 429 716T551 688L536 556V556Z" />
<glyph unicode="T" glyph-name="T" horiz-adv-x="694" d="M94 534H38V710H658V534H601V652H379V57H470V0H221V57H312V652H94V534Z" />
<glyph unicode="U" glyph-name="U" horiz-adv-x="762" d="M728 652H656V301Q656 203 633 142T570 47T481 1T379 -11Q327 -11 278 1T190 47T128 142T104 301V652H32V710H245V653H173V297Q173 216 190 167T237 91T303 56T379 47Q415 47 452 55T519 89T568 164T587
297V652H514V710H728V652Z" />
<glyph unicode="V" glyph-name="V" horiz-adv-x="716" d="M23 652V710H161L358 96L558 710H694V652H612Q558 488 503 326T394 0H323L106 652H23Z" />
<glyph unicode="W" glyph-name="W" horiz-adv-x="1061" d="M1047 710V652H965Q908 488 851 326T737 0H667Q632 109 598 217T529 434L377 0H306L99 652H16V710H154Q201 555 248 402T342 94Q380 207 418 318T494 543Q485 573 477 597T459 652H378V710H514Q562 555
608 402T702 94L911 710H1047Z" />
<glyph unicode="X" glyph-name="X" horiz-adv-x="723" d="M679 710V652H619L392 355L621 57H679V0H582L353 302L125 0H32V57H85L313 355L86 652H32V710H126Q183 634 239 559T353 408Q411 484 467 559T581 710H679Z" />
<glyph unicode="Y" glyph-name="Y" horiz-adv-x="677" d="M18 652V710H132Q181 630 229 551T328 392L545 710H657V652H584Q528 571 473 490T363 328V57H446V0H211V57H294V328Q243 409 193 490T92 652H18Z" />
<glyph unicode="Z" glyph-name="Z" horiz-adv-x="648" d="M30 59Q154 208 275 356T520 653H100V550H42V710H603V654Q480 504 359 356T113 57H553V161H611V0H30V59Z" />
<glyph unicode="[" glyph-name="bracketleft" horiz-adv-x="270" d="M91 903H263V849H158V-145H263V-198H91V903Z" />
<glyph unicode="\" glyph-name="backslash" horiz-adv-x="331" d="M87 710L312 0H243L14 710H87Z" />
<glyph unicode="]" glyph-name="bracketright" horiz-adv-x="267" d="M178 -198H6V-145H111V849H6V903H178V-198Z" />
<glyph unicode="^" glyph-name="asciicircum" horiz-adv-x="414" d="M37 525Q70 574 103 623T168 722H244Q277 672 310 623T377 525H297L207 674L116 525H37Z" />
<glyph unicode="_" glyph-name="underscore" d="M77 -72H517V-127H77V-72Z" />
<glyph unicode="`" glyph-name="grave" horiz-adv-x="184" d="M93 594Q79 623 65 652T37 712H102Q114 682 127 653T153 594H93V594Z" />
<glyph unicode="a" glyph-name="a" horiz-adv-x="552" d="M480 50Q488 48 498 49T525 56Q528 45 530 35T535 14Q512 3 501 0T472 -4Q452 -4 441 0T424 12T414 33T408 61H404Q391 44 378 31T345 9T297 -5T226 -10Q173 -9 139 4T83 41T54 97T45 167V180Q45 252 99
294T273 336H395Q395 378 391 408T374 457T338 486T277 496Q239 496 205 491T138 481V448H90Q88 468 87 488T83 528Q102 533 127 538T179 547T232 553T283 556Q346 556 382 536T435 483T457 412T461 335V235Q461 205 461 174T462 116T468 71T480 50ZM396 282H268Q184
282 147 255T110 178V155Q110 100 141 75T238 50H278Q300 52 321 58T358 78T385 118T396 185V282Z" />
<glyph unicode="b" glyph-name="b" horiz-adv-x="624" d="M179 770V510Q188 518 200 526T231 542T276 553T338 558Q383 558 424 547T496 507T545 429T564 304V232Q564 157 546 110T496 35T423 -1T337 -11Q297 -11 270 -7T224 3T190 16T163 29Q157 5 150 -5T132
-26L92 -12Q97 1 105 33T113 125V710H21V770H179ZM179 154Q179 131 178 113T175 79Q187 73 200 67T232 56T274 47T331 43Q363 43 393 50T446 78T484 137T498 236V305Q498 366 483 404T444 464T389 494T329 502Q282 502 243 489T179 458V154Z" />
<glyph unicode="c" glyph-name="c" horiz-adv-x="534" d="M410 409Q410 428 410 446T409 484Q382 495 351 498T297 502Q269 502 240 496T186 470T146 414T130 318V230Q130 164 147 127T190 72T247 49T305 45Q361 45 400 54T469 75Q474 61 478 48T488 21Q456 7
407 -1T291 -10Q245 -10 204 -1T131 34T82 106T64 228V314Q64 390 83 437T134 512T209 548T297 558Q319 558 337 557T373 554T413 547T463 534Q463 502 462 471T460 409H410Z" />
<glyph unicode="d" glyph-name="d" horiz-adv-x="628" d="M358 710V770H516V96Q516 64 525 56T546 48Q554 48 566 49T598 57L608 13Q580 3 564 -1T530 -5Q488 -5 468 30Q455 23 441 16T406 3T355 -6T279 -10Q237 -10 199 0T131 38T84 113T66 232V302Q66 379 84
429T134 507T206 547T292 558Q328 558 353 554T397 542T428 527T450 511V710H358ZM450 458Q425 477 385 489T300 502Q270 502 240 494T186 464T147 402T132 302V239Q132 177 146 139T183 79T236 51T299 43Q330 43 353 46T394 54T424 65T450 77V458Z" />
<glyph unicode="e" glyph-name="e" horiz-adv-x="569" d="M294 -11Q248 -11 206 -2T131 34T79 107T59 230V315Q59 392 79 439T132 513T208 549T296 558Q341 558 381 548T451 512T498 444T516 338Q516 318 515 297T511 262H123Q123 190 135 148T170 84T224 56T293
49Q356 49 396 55T468 71Q473 59 478 46T488 21Q456 7 408 -2T294 -11ZM294 502Q265 502 235 497T180 473T139 417T123 314H449Q452 332 452 353Q452 393 438 421T401 468T350 494T294 502Z" />
<glyph unicode="f" glyph-name="f" horiz-adv-x="354" d="M294 494V436H172V57H246V0H32V57H105V436H55V494H105Q105 566 121 612T169 685T244 721T343 731V678Q299 678 267 673T214 648T183 593T172 494H294Z" />
<glyph unicode="g" glyph-name="g" horiz-adv-x="602" d="M263 -155Q293 -155 321 -148T373 -120T410 -66T425 24Q391 -2 355 -6T276 -11Q231 -11 190 -2T116 34T65 108T45 230V303Q45 380 63 429T113 507T185 547T272 558H286Q321 558 346 554T389 542T419 525T441
507Q458 553 506 553Q523 553 540 548T584 534Q582 523 579 512T573 489Q554 496 542 497T521 499Q510 499 501 488T492 443V33Q492 -47 472 -95T420 -170T347 -206T262 -215Q201 -215 147 -195T61 -128Q72 -116 82 -108T103 -89Q118 -112 137 -125T176 -144T219
-153T263 -155ZM425 456Q401 475 362 487T278 500Q248 500 218 492T165 463T126 403T111 304V235Q111 174 126 138T165 82T219 56T279 49Q309 49 331 51T371 56T401 65T425 75V456Z" />
<glyph unicode="h" glyph-name="h" horiz-adv-x="649" d="M541 122Q541 86 550 70T587 54Q599 54 617 57L621 0Q592 -6 568 -6Q526 -6 501 18T476 105V289Q476 364 464 406T431 469T386 495T333 500Q306 500 277 496T224 477T185 434T170 357V0H103V712H11V770H170V493Q198
530 240 544T334 558Q437 558 489 503T541 316V122V122Z" />
<glyph unicode="i" glyph-name="i" horiz-adv-x="317" d="M202 551V57H277V0H62V57H135V493H44V551H202ZM102 693Q102 716 117 729T155 742Q178 742 192 729T207 693Q207 669 193 656T155 643Q132 643 117 655T102 693Z" />
<glyph unicode="j" glyph-name="j" horiz-adv-x="278" d="M182 551V-73Q182 -121 177 -152T165 -202T150 -231T134 -245L94 -232Q99 -219 107 -186T116 -94V493H24V551H182ZM90 693Q90 716 105 729T143 742Q166 742 181 729T196 693Q196 669 181 656T143 643Q120
643 105 655T90 693Z" />
<glyph unicode="k" glyph-name="k" horiz-adv-x="658" d="M567 551V493H490Q476 476 461 460T430 424L312 276L492 106Q541 60 575 44L607 28Q602 17 596 3T579 -12Q571 -12 558 -10T526 2T483 27T430 72Q366 133 303 193T175 315V145Q175 100 170 70T158 20T142
-10T128 -26Q117 -23 108 -20T87 -13Q95 2 102 36T109 124V711H17V770H175V399L259 320L450 551H567Z" />
<glyph unicode="l" glyph-name="l" horiz-adv-x="268" d="M7 712V770H166V124Q166 68 172 35T187 -13Q176 -17 167 -20T147 -26Q138 -21 130 -11T115 19T104 68T99 145V712H7Z" />
<glyph unicode="m" glyph-name="m" horiz-adv-x="897" d="M726 280Q726 348 720 391T699 458T663 492T610 501Q562 501 522 479T459 418Q460 389 462 356T464 287V1H399V299Q399 355 393 393T374 456T338 490T283 501Q237 501 200 481T137 426V1H71V444Q71 479
62 489T41 500Q35 500 31 500T20 498L11 547Q21 550 33 552T56 554Q82 554 100 540T124 489Q156 520 199 539T283 559Q338 559 375 541T435 472Q465 511 513 535T613 559Q670 559 705 538T759 478T784 389T791 279V122Q791 100 794 86T805 64T829 55T867 57L871
0Q839 -7 812 -7T766 5T737 41T726 105V280V280Z" />
<glyph unicode="n" glyph-name="n" horiz-adv-x="626" d="M456 342Q456 421 419 460T327 499Q297 499 268 493T213 475T167 444T137 397V0H71V443Q71 478 62 488T41 499Q35 499 31 499T20 497L11 546Q20 548 31 551T51 555Q75 555 87 549T105 533T115 508T124
475Q140 495 162 510T212 536T268 552T326 558Q378 558 415 540T475 491T510 422T521 341V122Q521 100 524 86T535 64T559 55T597 57L601 0Q569 -7 542 -7T496 5T466 41T455 105L456 342Z" />
<glyph unicode="o" glyph-name="o" horiz-adv-x="535" d="M38 313Q38 390 56 438T106 512T179 548T266 558Q311 558 352 549T425 513T476 438T495 314V230Q495 154 477 107T427 34T353 -1T265 -10Q219 -10 178 -1T105 33T56 105T38 227V313ZM104 226Q104 166 118
131T156 76T208 52T266 46Q293 46 321 51T374 75T413 129T429 225V318Q429 378 414 414T375 470T322 496T266 502Q238 502 210 496T158 470T119 414T104 319V226Z" />
<glyph unicode="p" glyph-name="p" horiz-adv-x="624" d="M110 -212V443Q110 479 101 489T80 499Q52 499 28 490L17 534Q43 543 60 548T96 553Q142 553 160 505Q172 514 186 523T220 540T268 553T334 558Q379 558 420 547T493 508T542 430T561 303V230Q561 155
543 108T493 35T421 -1T335 -11Q299 -11 274 -9T231 -2T200 9T176 24V-190L110 -212ZM176 77L182 74Q194 69 206 64T235 54T274 48T326 45Q358 45 388 52T442 79T480 137T495 235V304Q495 365 480 403T442 464T388 494T328 503Q280 503 240 489T176 457V77Z" />
<glyph unicode="q" glyph-name="q" horiz-adv-x="622" d="M450 -212V24Q441 17 430 11T402 -1T361 -9T301 -12Q256 -12 214 -2T139 34T86 108T66 230V303Q66 380 85 429T136 507T211 547T299 558Q334 558 360 553T406 541T440 523T466 504Q482 553 531 553Q549
553 565 548T609 534L597 489Q579 496 567 497T546 499Q535 499 526 488T516 448V-190L450 -212ZM450 457Q427 476 387 489T299 503Q269 503 239 495T186 464T147 404T132 304V235Q132 174 146 137T184 80T238 52T301 45Q332 45 355 47T395 53T425 63T450 76V457Z"
/>
<glyph unicode="r" glyph-name="r" horiz-adv-x="486" d="M463 440H398V495Q381 497 364 498T327 500Q282 500 245 477T194 398V0H128V493H38Q38 507 38 522T37 551H185V497Q206 529 242 545T327 562Q342 562 356 562T385 559T420 553T464 542L463 440Z" />
<glyph unicode="s" glyph-name="s" horiz-adv-x="526" d="M394 415V491Q366 502 336 504T282 507Q250 507 222 503T174 488T142 461T130 423Q130 375 161 354T258 325Q277 322 301 320T350 312T399 298T442 272T472 230T484 167Q484 79 424 34T265 -11Q221 -11
166 -7T54 15Q56 47 55 77T55 140H121V66Q152 56 191 51T259 46Q301 46 330 57T379 85T406 125T415 171Q415 199 400 216T360 242T304 257T242 266Q144 278 105 314T65 416Q65 496 122 529T282 563Q316 563 357 559T459 538V415H394Z" />
<glyph unicode="t" glyph-name="t" horiz-adv-x="348" d="M125 713Q140 715 155 717T186 723V554H309V493H186V100Q186 84 189 75T198 60T209 53T222 51Q233 51 251 53T298 61Q300 47 303 36T309 11Q294 9 284 6T263 1T239 -4T205 -6Q176 -6 159 3T133 32T122
79T119 147V493H17L31 554H96Q105 567 110 577T119 602T124 642T125 713Z" />
<glyph unicode="u" glyph-name="u" horiz-adv-x="632" d="M392 550H537V110Q537 82 544 67T568 52Q577 52 588 55T613 64Q615 52 618 38T625 13Q599 3 580 0T545 -4Q519 -4 502 9T482 59Q469 39 450 27T408 7T359 -4T307 -7Q265 -7 227 2T160 37T113 109T95 231V493H19V551H162V236Q162
179 173 143T203 87T250 58T308 50Q335 50 364 53T417 71T456 114T471 195V493H392V550Z" />
<glyph unicode="v" glyph-name="v" horiz-adv-x="588" d="M143 551L293 82Q329 200 367 316T441 551H576V493H496L331 0H255Q211 124 172 246T89 493H8V551H143Z" />
<glyph unicode="w" glyph-name="w" horiz-adv-x="896" d="M884 551V493H803L637 0H564L451 340L336 0H263L97 493H16V551H152L301 82L418 445L404 493H330V551L455 550L599 82L748 551H884Z" />
<glyph unicode="x" glyph-name="x" horiz-adv-x="642" d="M130 0H37V57Q53 57 74 61T115 86L274 275L91 493H37V551H131L316 325Q386 409 423 455T479 522Q499 547 503 551H596V493Q580 493 559 489T518 464L359 275L542 57H596V0H502L316 225L130 0Z" />
<glyph unicode="y" glyph-name="y" horiz-adv-x="557" d="M459 56Q432 20 390 7T296 -7Q252 -7 215 2T151 37T108 109T92 231V493H15V551H157V242Q157 184 168 147T197 89T241 59T297 50Q325 50 354 53T406 72T444 116T459 198V493H363V551H526V35Q526 -43 508
-91T459 -167T387 -205T301 -215Q239 -215 187 -199T102 -135L135 -88Q150 -111 169 -124T209 -144T252 -153T296 -155Q320 -155 348 -151T401 -131T442 -81T459 10V56Z" />
<glyph unicode="z" glyph-name="z" horiz-adv-x="611" d="M68 57Q165 167 260 275T451 493H119V399H68V551H536V495Q439 385 344 276T153 57H496V151H546V0H68V57Z" />
<glyph unicode="{" glyph-name="braceleft" horiz-adv-x="330" d="M202 356Q202 258 211 174T237 24T279 -88T334 -159L300 -189Q263 -163 233 -120T181 -14T146 133T132 325H17V379H132Q133 489 144 573T176 720T227 823T295 891L328 862Q302 838 279 795T239
688T212 543T202 358V356Z" />
<glyph unicode="|" glyph-name="bar" horiz-adv-x="199" d="M134 781V-72H68V781H134Z" />
<glyph unicode="}" glyph-name="braceright" horiz-adv-x="367" d="M129 355Q129 456 119 538T92 685T52 793T3 862L36 891Q73 865 102 823T153 719T185 573T198 379H313V324H198Q196 216 184 133T149 -13T97 -119T30 -188L-3 -158Q27 -134 51 -88T93 24T120 173T129
355Z" />
<glyph unicode="~" glyph-name="asciitilde" horiz-adv-x="451" d="M56 321Q69 360 91 384T149 409Q168 409 188 399T228 378T265 356T294 346Q296 346 304 349T323 358T343 375T360 402L385 374Q372 332 350 309T293 286Q277 286 257 296T216 317T177 339T147
349Q144 349 136 346T118 337T98 320T81 293L56 321Z" />
</font>
</defs>
</svg>
